<?xml version="1.0" encoding="UTF-8"?>
<svg id="Layer_2" data-name="Layer 2" xmlns="http://www.w3.org/2000/svg" viewBox="0 0 77.65 150.4">
  <defs>
    <style>
      .cls-1 {
        fill: #2a4849;
      }
    </style>
  </defs>
  <g id="Layer_1-2" data-name="Layer 1">
    <g>
      <g>
        <path class="cls-1" d="M77.65,3.29v12.7c0,.49-.25.94-.66,1.21l-24.91,16.01c-.87.56-.88,1.82-.02,2.4l24.95,16.73c.4.27.64.71.64,1.19v11.73c0,1.16-1.29,1.84-2.25,1.18l-34.35-23.57c-.49-.34-1.13-.34-1.62,0L2.25,68.3C1.29,68.95,0,68.27,0,67.12v-13.03c0-.49.25-.94.65-1.2l27.21-17.74c.86-.56.87-1.83,0-2.4L.64,14.69C.24,14.43,0,13.98,0,13.5V1.44C0,.28,1.29-.4,2.25.25l37.18,25.42c.49.33,1.13.33,1.62,0L75.4,2.11c.95-.65,2.25.03,2.25,1.18Z"/>
        <path class="cls-1" d="M0,90.8v11.44c0,.59.48,1.07,1.07,1.07h27.65c.59,0,1.07.48,1.07,1.07v19.59c0,5.51.78,10,2.34,13.49,1.56,3.48,3.53,6.16,5.93,8.05,2.39,1.88,4.98,3.17,7.78,3.86,2.79.69,5.38,1.03,7.78,1.03s5-.35,7.83-1.03c2.83-.69,5.44-1.98,7.83-3.86,2.39-1.89,4.39-4.57,5.98-8.05,1.59-3.48,2.39-7.98,2.39-13.49v-33.18c0-.59-.48-1.07-1.07-1.07H1.07c-.59,0-1.07.48-1.07,1.07ZM66.55,123.43c0,1.81-.18,3.51-.54,5.11-.36,1.59-1.03,3.01-2.01,4.24-.98,1.23-2.3,2.21-3.97,2.94-1.67.72-3.77,1.09-6.31,1.09s-4.51-.42-6.14-1.25-2.94-1.92-3.91-3.26c-.98-1.34-1.69-2.81-2.12-4.4-.44-1.6-.65-3.15-.65-4.68v-18.83c0-.59.48-1.07,1.07-1.07h7.28c.59,0,1.07.48,1.07,1.07v15.19c0,.59.48,1.07,1.07,1.07h4.66c.59,0,1.07-.48,1.07-1.07v-15.19c0-.59.48-1.07,1.07-1.07h7.28c.59,0,1.07.48,1.07,1.07v19.04Z"/>
      </g>
      <g>
        <path class="cls-1" d="M2.23,76.13v11.24h-.88v-11.24h.88ZM1.83,87.36v-.88h2.57c.7,0,1.33-.11,1.9-.34s1.06-.54,1.47-.96c.41-.41.72-.91.94-1.49.22-.58.33-1.23.33-1.95s-.11-1.37-.33-1.95c-.22-.58-.53-1.08-.94-1.49-.41-.41-.9-.73-1.47-.96s-1.21-.34-1.9-.34H1.83v-.88h2.57c1.09,0,2.05.24,2.88.71.83.47,1.48,1.13,1.94,1.97.47.84.7,1.82.7,2.95s-.23,2.11-.7,2.95c-.47.84-1.11,1.5-1.94,1.97-.83.47-1.79.71-2.88.71H1.83Z"/>
        <path class="cls-1" d="M12.86,76.13v11.24h-.88v-11.24h.88ZM12.44,76.13h5.57v.83h-5.57v-.83ZM12.44,80.78h5.25v.83h-5.25v-.83ZM12.44,86.53h5.57v.83h-5.57v-.83Z"/>
        <path class="cls-1" d="M21.29,85.4c.26.38.59.69.97.92.38.23.85.34,1.38.34.73,0,1.3-.2,1.71-.6.41-.4.62-.91.62-1.53,0-.55-.12-.98-.37-1.32-.25-.33-.56-.6-.95-.81-.39-.21-.8-.39-1.23-.55-.32-.12-.66-.26-1-.43-.35-.17-.67-.37-.97-.61s-.54-.53-.73-.87-.28-.75-.28-1.24c0-.53.13-1.01.39-1.42.26-.41.62-.73,1.08-.96.46-.23.98-.35,1.56-.35s1.12.11,1.55.34c.43.22.8.51,1.08.85.29.34.51.7.66,1.06l-.77.43c-.12-.29-.29-.57-.51-.85-.22-.28-.5-.51-.83-.7s-.74-.28-1.24-.28c-.65,0-1.16.17-1.51.51-.35.34-.53.76-.53,1.26,0,.42.1.78.3,1.08.2.3.51.57.92.81.41.24.91.47,1.51.68.31.12.63.26.96.43.33.17.63.39.91.64.27.26.5.56.67.92.17.36.26.78.26,1.28,0,.46-.08.88-.25,1.25-.17.37-.4.7-.69.97-.29.27-.64.48-1.04.63-.4.14-.82.22-1.28.22-.65,0-1.23-.13-1.72-.4s-.9-.63-1.24-1.08c-.33-.45-.59-.94-.77-1.46l.72-.45c.18.47.4.9.67,1.28Z"/>
        <path class="cls-1" d="M29.81,76.13v11.24h-.88v-11.24h.88Z"/>
        <path class="cls-1" d="M37.72,81.76h4.99c0,.76-.12,1.48-.35,2.18-.24.69-.58,1.3-1.04,1.84-.46.54-1.02.96-1.67,1.27-.65.31-1.39.47-2.22.47s-1.54-.14-2.22-.43-1.27-.68-1.78-1.2c-.51-.51-.9-1.12-1.18-1.83s-.42-1.48-.42-2.31.14-1.61.42-2.31.67-1.32,1.18-1.83c.51-.51,1.1-.91,1.78-1.2.68-.28,1.42-.43,2.22-.43.7,0,1.33.1,1.9.29.57.19,1.08.47,1.53.83s.83.79,1.16,1.29l-.64.56c-.37-.62-.9-1.12-1.57-1.51-.67-.38-1.47-.58-2.38-.58s-1.67.21-2.38.63-1.27.99-1.68,1.72c-.41.73-.62,1.57-.62,2.54s.21,1.8.62,2.53.97,1.31,1.67,1.73,1.5.63,2.38.63c.63,0,1.2-.11,1.7-.32s.94-.51,1.31-.88.67-.8.89-1.28c.22-.48.36-1,.42-1.54h-4.03v-.83Z"/>
        <path class="cls-1" d="M54.27,76.13v11.67l-8.54-9.81v9.37h-.88v-11.67l8.54,9.84v-9.41h.88Z"/>
      </g>
    </g>
  </g>
</svg>